# xmcd
#
# Track frame offsets: 
#        150
#        22473
#        43980
#        59290
#        72665
#        89170
#        109133
#        132178
#        145320
#        160328
#        179825
#        199548
#        212928
#        227206
#        242728
#        260983
#        281184
#        301142
#        315138
#
# Disc length: 4416 seconds
#
# Revision: 0
# Processed by: cddbd v1.5.2PL0 Copyright (c) Steve Scherf et al.
# Submitted via: ExactAudioCopyFreeDBPlugin 1.0
#
DISCID=37113e13
DTITLE=The Blind Boys Of Alabama - Spirit Of The Century (Expanded Rei
DTITLE=ssue)
DYEAR=2016
DGENRE=Gospel
TTITLE0=Jesus Gonna Be Here
TTITLE1=No More
TTITLE2=Run On For A Long Time
TTITLE3=Good Religion
TTITLE4=Give A Man A Home
TTITLE5=Amazing Grace
TTITLE6=Soldier
TTITLE7=Nobody's Fault But Mine
TTITLE8=Way Down In The Hole
TTITLE9=Motherless Child
TTITLE10=Just Wanna See His Face
TTITLE11=The Last Time
TTITLE12=Good Religion (Live at The Bottom Line, NYC 2001)
TTITLE13=Way Down In A Hole (Live at The Bottom Line, NYC 2001)
TTITLE14=Give A Man A Home (Live at The Bottom Line, NYC 2001)
TTITLE15=Motherless Child (Live at The Bottom Line, NYC 2001)
TTITLE16=No More (Live at The Bottom Line, NYC 2001)
TTITLE17=Nobody's Fault But Mine (Live at The Bottom Line, NYC 2001)
TTITLE18=The Last Time (Live at The Bottom Line, NYC 2001)
EXTD=
EXTT0=
EXTT1=
EXTT2=
EXTT3=
EXTT4=
EXTT5=
EXTT6=
EXTT7=
EXTT8=
EXTT9=
EXTT10=
EXTT11=
EXTT12=
EXTT13=
EXTT14=
EXTT15=
EXTT16=
EXTT17=
EXTT18=
PLAYORDER=
